Coordinates
version=1
nRows=8
nColumns=40
inDegrees=yes

Units are S.I. units (second, meters, Newtons, ...)
If the header above contains a line with 'inDegrees', this indicates whether rotational values are in degrees (yes) or radians (no).

endheader
time	pelvis_tilt	pelvis_list	pelvis_rotation	pelvis_tx	pelvis_ty	pelvis_tz	hip_flexion_r	hip_adduction_r	hip_rotation_r	knee_angle_r	knee_angle_r_beta	ankle_angle_r	subtalar_angle_r	mtp_angle_r	hip_flexion_l	hip_adduction_l	hip_rotation_l	knee_angle_l	knee_angle_l_beta	ankle_angle_l	subtalar_angle_l	mtp_angle_l	lumbar_extension	lumbar_bending	lumbar_rotation	arm_flex_r	arm_add_r	arm_rot_r	elbow_flex_r	pro_sup_r	wrist_flex_r	wrist_dev_r	arm_flex_l	arm_add_l	arm_rot_l	elbow_flex_l	pro_sup_l	wrist_flex_l	wrist_dev_l
      0.00000000	      0.81610969	      2.62760282	     -2.23268232	      0.26704304	      0.91246017	     -1.21412351	     -0.27408944	    -22.19137798	    -36.11520256	      8.01092264	      0.13981698	     -4.92628847	     11.31690834	      0.00000000	     -1.24721023	    -15.73342185	    -38.79476702	      7.07872678	      0.12354709	     -4.39298973	     18.66808132	      0.00000000	     -3.21739462	     -1.82917912	      0.64364199	     41.50086180	    -16.16241631	     41.50086180	     76.53327911	     44.54670601	      0.00000000	      0.00000000	     41.50086180	    -16.16241631	     41.50086180	     76.53327911	     44.54670601	      0.00000000	      0.00000000
      0.00500000	      0.80814752	      2.47221631	     -2.15278978	      0.26701662	      0.91246419	     -1.21429129	     -0.34168412	    -21.98832062	    -36.18307512	      7.91733245	      0.13818352	     -4.99874336	     11.28094232	      0.00000000	     -1.15580299	    -15.97176028	    -38.81576908	      7.26160006	      0.12673883	     -4.25055381	     18.83286118	      0.00000000	     -3.22104200	     -1.68535361	      0.45082467	     41.54672762	    -16.13864732	     41.54672762	     76.47770386	     44.58422280	      0.00000000	      0.00000000	     41.54672762	    -16.13864732	     41.54672762	     76.47770386	     44.58422280	      0.00000000	      0.00000000
      0.01000000	      0.78745440	      2.50293498	     -2.11373738	      0.26704295	      0.91240441	     -1.21433999	     -0.31715649	    -22.05411616	    -36.32024731	      7.98234840	      0.13931826	     -4.94886494	     11.43967397	      0.00000000	     -1.11333730	    -15.94638313	    -38.79765224	      7.27654762	      0.12699971	     -4.25549922	     18.83156971	      0.00000000	     -3.18615387	     -1.73531794	      0.39286617	     41.71456601	    -16.06033586	     41.71456601	     76.32780140	     44.65126830	      0.00000000	      0.00000000	     41.71456601	    -16.06033586	     41.71456601	     76.32780140	     44.65126830	      0.00000000	      0.00000000
      0.01500000	      0.92708858	      2.59034125	     -2.27311421	      0.26685114	      0.91266335	     -1.21407794	     -0.40599844	    -22.10431882	    -35.97172936	      7.88337575	      0.13759086	     -5.02731679	     11.14118892	      0.00000000	     -1.37943989	    -15.75172556	    -38.75427601	      7.05720195	      0.12317141	     -4.35664767	     18.50847269	      0.00000000	     -3.38985229	     -1.89324060	      0.49323229	     41.69965775	    -16.06607548	     41.69965775	     76.33382187	     44.65430300	      0.00000000	      0.00000000	     41.69965775	    -16.06607548	     41.69965775	     76.33382187	     44.65430300	      0.00000000	      0.00000000
      0.02000000	      0.81870072	      2.45827020	     -2.16050188	      0.26693435	      0.91251172	     -1.21426466	     -0.38486573	    -21.92585928	    -36.10471371	      7.79362791	      0.13602447	     -5.09061727	     11.16230704	      0.00000000	     -1.18758081	    -15.96205934	    -38.77224887	      7.18820849	      0.12545791	     -4.29811269	     18.77289401	      0.00000000	     -3.24859675	     -1.69260379	      0.41916942	     41.71672345	    -16.05711890	     41.71672345	     76.31249713	     44.66856297	      0.00000000	      0.00000000	     41.71672345	    -16.05711890	     41.71672345	     76.31249713	     44.66856297	      0.00000000	      0.00000000
      0.02500000	      0.82383644	      2.41584730	     -2.12333553	      0.26687081	      0.91253455	     -1.21433650	     -0.41430327	    -21.87235681	    -36.13210267	      7.76493959	      0.13552376	     -5.11835342	     11.12130077	      0.00000000	     -1.14071498	    -16.04775486	    -38.80399718	      7.30093494	      0.12742535	     -4.23971313	     18.85185123	      0.00000000	     -3.27111189	     -1.65313344	      0.35995000	     41.70299480	    -16.06039713	     41.70299480	     76.30829142	     44.68028408	      0.00000000	      0.00000000	     41.70299480	    -16.06039713	     41.70299480	     76.30829142	     44.68028408	      0.00000000	      0.00000000
      0.03000000	      0.83024745	      2.43347913	     -2.16477683	      0.26683048	      0.91253371	     -1.21419481	     -0.41054898	    -21.86886119	    -36.06583930	      7.73247934	      0.13495722	     -5.13796105	     11.00498961	      0.00000000	     -1.17610955	    -16.01348414	    -38.77975350	      7.24915641	      0.12652165	     -4.25467824	     18.73564238	      0.00000000	     -3.28810036	     -1.70871511	      0.44963842	     41.73190459	    -16.04552359	     41.73190459	     76.27415380	     44.70124677	      0.00000000	      0.00000000	     41.73190459	    -16.04552359	     41.73190459	     76.27415380	     44.70124677	      0.00000000	      0.00000000
      0.03500000	      0.82282982	      2.50502051	     -2.17885031	      0.26678503	      0.91249480	     -1.21421456	     -0.33121551	    -22.00877985	    -36.12065511	      7.89298869	      0.13775864	     -4.99765869	     11.20186125	      0.00000000	     -1.17071464	    -15.92682650	    -38.81733705	      7.23689473	      0.12630764	     -4.28808390	     18.76971624	      0.00000000	     -3.27797681	     -1.68905713	      0.57271462	     41.81926145	    -16.00855113	     41.81926145	     76.21587347	     44.71856774	      0.00000000	      0.00000000	     41.81926145	    -16.00855113	     41.81926145	     76.21587347	     44.71856774	      0.00000000	      0.00000000
